<svg xmlns="http://www.w3.org/2000/svg" version="1.1" xmlns:xlink="http://www.w3.org/1999/xlink" width="1000" height="1000"><metadata><rdf:RDF xmlns:rdf="http://www.w3.org/1999/02/22-rdf-syntax-ns#" xmlns:dc="http://purl.org/dc/elements/1.1/"><rdf:Description><dc:creator>RealFaviconGenerator</dc:creator><dc:source>https://realfavicongenerator.net</dc:source></rdf:Description></rdf:RDF></metadata><style>
    #light-icon {
      display: inline;
    }
    #dark-icon {
      display: none;
    }

    @media (prefers-color-scheme: dark) {
      #light-icon {
        display: none;
      }
      #dark-icon {
        display: inline;
      }
    }
  </style><g id="light-icon"><svg xmlns="http://www.w3.org/2000/svg" version="1.1" xmlns:xlink="http://www.w3.org/1999/xlink" width="1000" height="1000"><g clip-path="url(#SvgjsClipPath1159)"><rect width="1000" height="1000" fill="#ffffff"></rect><g transform="matrix(31.25,0,0,31.25,0,0)"><svg xmlns="http://www.w3.org/2000/svg" viewBox="0 0 32 32" fill="none" role="img" aria-label="Astro Business Stack" width="32" height="32"><rect x="0.5" y="0.5" width="31" height="31" rx="6" fill="#fafafa" stroke="#e5e5e5"></rect><g transform="translate(4 4)" stroke="#9f1239" stroke-width="2" stroke-linecap="round" stroke-linejoin="round">
    <path d="M16 18l6-6-6-6M8 6l-6 6 6 6"></path>
  </g></svg></g></g><defs><clipPath id="SvgjsClipPath1159"><rect width="1000" height="1000" x="0" y="0" rx="350" ry="350"></rect></clipPath></defs></svg></g><g id="dark-icon"><svg xmlns="http://www.w3.org/2000/svg" version="1.1" xmlns:xlink="http://www.w3.org/1999/xlink" width="1000" height="1000"><g><g transform="matrix(31.25,0,0,31.25,0,0)" style="filter: invert(100%)"><svg xmlns="http://www.w3.org/2000/svg" viewBox="0 0 32 32" fill="none" role="img" aria-label="Astro Business Stack" width="32" height="32"><rect x="0.5" y="0.5" width="31" height="31" rx="6" fill="#fafafa" stroke="#e5e5e5"></rect><g transform="translate(4 4)" stroke="#9f1239" stroke-width="2" stroke-linecap="round" stroke-linejoin="round">
    <path d="M16 18l6-6-6-6M8 6l-6 6 6 6"></path>
  </g></svg></g></g></svg></g></svg>