<svg xmlns="http://www.w3.org/2000/svg" xmlns:xlink="http://www.w3.org/1999/xlink" width="1024" height="1024" viewBox="0 0 1024 1024"><metadata><rdf:RDF xmlns:rdf="http://www.w3.org/1999/02/22-rdf-syntax-ns#" xmlns:dc="http://purl.org/dc/elements/1.1/"><rdf:Description><dc:creator>RealFaviconGenerator</dc:creator><dc:source>https://realfavicongenerator.net</dc:source></rdf:Description></rdf:RDF></metadata><path fill="#262325" d="M340.01 168.228C379.629 167.19 422.119 168.195 461.896 168.419L602.097 168.392C630.364 168.616 658.632 168.653 686.9 168.504C686.778 178.769 687.731 190.937 685.7 200.834C682.554 218.638 666.476 231.143 649.321 234.957C628.933 239.491 611.663 243.147 597.755 261.069C590.416 270.576 585.883 281.946 584.668 293.895C583.721 302.883 584.036 314.362 584.067 323.575L584.079 365.207L584.298 516.396L584.059 660.109L584.028 701.604C584.024 710.854 583.672 722.668 584.884 731.639C587.248 755.388 607.073 779.6 630.807 784.862C657.401 790.758 683.38 796.707 686.272 829.454C686.569 832.809 687.303 853.762 685.929 855.479L337.614 855.48C338.115 844.733 337.002 831.482 339.248 821.444C342.982 804.757 357.763 794.07 373.466 789.592C379.522 787.865 386.181 786.951 392.351 785.353C407.632 781.411 420.867 771.856 429.419 758.592C442.527 738.305 440.46 718.801 440.423 695.794L440.386 648.361L440.441 489.651L440.458 360.791L440.462 324.102C440.453 313.206 440.765 298.812 438.446 288.444C432.872 263.527 415.105 244.667 390.361 238.085C379.893 235.3 367.185 233.55 358.196 227.719C347.856 221.012 341.226 211.654 338.581 199.597C337.513 194.729 336.215 171.759 338.311 168.559L340.01 168.228ZM352.152 183.005C352.198 193.896 351.759 204.026 360.317 212.466C371.6 223.594 389.43 221.39 404.441 225.65C429.434 232.742 445.2 252.407 452.062 276.881C454.009 283.826 454.883 293.942 454.911 301.177C455.043 334.636 454.97 368.162 454.956 401.62L454.941 591.219L454.969 683.677C454.99 702.176 455.936 720.315 453.72 738.403C450.259 766.654 429.322 793.223 400.961 799.369C376.846 804.595 351.464 801.513 351.818 836.275L351.889 840.938L645.625 840.976C654.472 840.99 663.723 841.141 672.528 840.734C672.782 799.2 649.938 806.093 620.244 798.29C586.829 789.51 569.648 757.993 569.409 724.51L569.416 426.961L569.356 337.141C569.343 322.189 568.501 296.729 570.746 282.774C572.988 267.952 579.924 254.24 590.535 243.652C599.569 234.599 610.871 228.142 623.258 224.958C638.344 220.956 656.557 222.946 667.113 209.277C672.387 202.448 672.981 194.945 673.016 186.694L673.017 183.289C665.116 182.938 656.494 183.283 648.469 183.223L579.808 183.151L380.696 182.757L352.152 183.005Z"></path><path fill="#262325" d="M488.848 208.223C498.278 208.071 533.569 207.201 539.835 209.675C541.06 210.158 542.026 210.698 542.456 212.024C544.021 216.859 538.17 221.707 535.682 225.185C533.99 227.549 532.544 230.148 531.197 232.719C524.761 245 521.439 258.345 520.313 272.108C519.194 285.788 519.436 299.492 519.444 313.202L519.483 365.902L519.469 532.497L519.481 674.499L519.494 716.742C519.505 743.668 519.122 771.147 533.029 795.302C536.199 800.809 549.626 811.994 536.598 814.943C529.554 815.473 520.147 815.204 513.009 815.12C505.802 815.035 487.156 816.857 482.421 811.668C480.676 806.507 486.566 801.543 489.252 797.375C506.36 770.827 505.078 742.673 505.04 712.556L504.99 657.8L504.994 485.5L505.012 348.359C505.015 338.728 505.137 328.876 505.019 319.404C504.652 289.935 507.365 258.349 492.884 231.513C489.606 225.438 475.406 210.344 488.848 208.223Z"></path><path fill="#262325" d="M389.931 189.536C395.5 189.334 396.506 190.466 398.756 195.307C412.949 195.284 433.992 193.466 446.837 199.101C451.893 201.319 453.272 204.968 456.66 207.255C460.037 209.241 464.13 210.557 467.434 212.624C487.022 224.874 496.499 254.071 497.49 275.889C498.838 305.564 498.36 335.539 498.356 365.228L498.299 520.259L498.36 666.699L498.319 713.575C498.299 724.982 498.459 736.903 497.539 748.244C496.455 761.223 493.126 773.915 487.699 785.755C480.587 801.136 472.73 810.368 456.895 816.245C449.143 827.03 440.929 827.059 428.42 829.218C423.729 835.599 420.717 835.242 416.621 828.492C411.537 828.515 406.452 828.494 401.368 828.427C397.912 834.437 395.938 835.865 389.305 833.23C387.066 831.169 385.719 828.937 386.247 825.75C386.603 823.607 387.877 821.726 389.735 820.599C394.622 817.599 398.43 820.866 400.841 825.061C406.043 825.131 410.714 825.172 415.926 824.95C421.554 820.623 422.759 819.35 428.591 824.557C442.777 820.126 439.461 816.845 448.068 809.555C476.329 785.618 483.557 758.019 483.588 722.035L483.477 425.98L483.479 344.361C483.495 316.972 485.44 286.807 478.729 260.187C475.48 247.3 467.619 232.954 457.96 223.814C451.152 217.372 443.531 211.815 437.763 204.177C432.121 197.128 408.238 198.652 399.144 199.031C398.228 200.135 397.433 201.43 396.297 202.333C392.928 205.01 387.858 204.57 385.594 200.682C384.592 198.973 384.332 196.928 384.874 195.021C385.663 192.168 387.481 190.831 389.931 189.536Z"></path><path fill="#262325" d="M655.07 188.078C657.485 188.039 661.642 188.386 662.878 190.669C665.304 195.153 659.057 200.626 656.9 203.794C654.972 206.426 653.189 210.929 650.528 212.822C643.457 217.853 632.181 216.057 623.848 217.43C596.694 221.904 576.812 241.935 567.878 267.308C564.913 275.586 563.131 284.242 562.585 293.018C562.118 301.437 562.447 312.083 562.476 320.728L562.521 367.2L562.492 519.379L562.488 659.265L562.49 703.325C562.494 726.048 561.321 744.309 571.517 765.502C582.335 787.986 600.438 802.251 625.142 806.786C632.091 808.061 639.667 806.756 646.428 809.296C652.611 811.622 654.677 816.978 658.724 821.694C659.888 823.214 662.786 824.671 663.279 826.543C665.585 835.282 657.751 837.797 651.44 833.349C649.607 827.948 650.644 826.984 654.039 822.783C650.6 815.445 646.591 812.12 638.209 811.172C621.313 809.263 603.595 814.347 587.701 806.414C571.124 798.139 559.398 782.631 553.43 765.344C546.15 744.873 547.499 723.505 547.538 702.122L547.55 650.161L547.523 484.195L547.547 355.182L547.515 313.979C547.51 303.562 547.346 293.23 548.17 282.835C549.114 270.468 552.491 258.41 558.108 247.353C560.482 242.62 563.418 238.844 566.538 234.726C579.198 218.013 595.746 212.424 616.241 212.852C624.694 213.029 634.857 214.792 642.893 211.929C649.148 209.701 651.546 206.614 654.182 200.981C650.126 195.315 648.032 192.15 655.07 188.078Z"></path><path fill="#262325" d="M628.772 189.472C649.733 188.217 632.707 217.025 624.772 199.052C619.537 198.905 615.57 198.863 610.289 199.14C605.155 203.308 603.613 205.525 598.287 200.127C586.276 202.298 585.465 206.299 577.573 214.11C574.775 216.88 569.95 220.084 566.892 223.266C547.75 243.19 540.983 266.222 540.719 293.021L540.692 592.992L540.721 677.97C540.671 717.703 535.019 769.981 566.62 800.257C573.252 806.611 578.733 809.887 584.669 817.544C592.151 827.198 614.687 825.166 625.671 824.997L626.01 824.567C632.311 816.747 640.398 818.947 640.554 829.715C636.479 838.264 629.741 836.001 625.796 828.581C614.057 828.599 601.43 828.979 589.731 828.1C581.637 827.492 574.527 823.34 569.667 816.769C562.62 814.604 555.785 811.454 550.493 806.177C523.02 778.779 526.416 740.23 526.438 704.921L526.392 643.059L526.397 439.903L526.332 331.675C526.283 312.343 525.558 289.225 527.24 270.309C528.626 254.73 537.043 231.422 548.077 220.174C550.431 217.91 556.571 212.106 559.545 211.276C568.528 208.77 573.335 201.204 581.247 197.6C584.909 195.932 593.116 195.464 597.091 195.388C602.654 188.733 605.522 189.835 610.585 196.011C615.858 195.577 619.304 195.628 624.55 195.759C625.66 192.553 626.241 191.723 628.772 189.472Z"></path><path fill="#262325" d="M366.063 188.037C377.297 186.4 373.616 195.025 371.702 201.48C376.239 216.211 392.884 213.195 405.002 213.198C408.417 213.198 412.213 213.173 415.557 213.09C442.52 212.421 461.504 233.602 470.195 257.229C478.127 278.19 476.929 301.239 476.897 323.779L476.825 375.449L476.807 531.242L476.67 666.347L476.692 708.237C476.707 730.781 477.348 752.494 467.509 773.492C456.155 797.722 436.561 813.126 409.104 811.09C401.09 810.496 389.758 809.686 382.059 812.456C375.996 814.97 370.62 820.041 374.482 825.95C375.498 827.506 375.523 829.793 375.499 831.656C366.981 841.746 355.686 828.321 369.025 821.816C375.527 803.593 388.147 809.095 403.528 806.067C414.528 803.844 424.75 798.768 433.169 791.347C449.291 777.361 460.265 753.476 461.832 732.317C462.538 722.791 462.087 709.785 462.05 700.025L462.02 650.748L462.02 486.564L462.008 357.674L462 318.168C461.994 292.985 461.928 271.896 447.698 249.61C437.405 233.49 422.839 221.855 403.829 217.932C393.074 215.713 379.831 219.22 372.137 209.193C370.074 206.677 367.94 204.201 365.957 201.62C361.261 195.508 357.702 193.033 366.063 188.037Z"></path><path fill="#262325" d="M472.191 819.494C477.354 819.817 478.872 821.385 480.869 825.944L544.901 826.005C547.528 820.495 553.503 817.198 558.087 822.519C559.549 824.22 560.196 826.474 559.858 828.691C559.348 831.986 557.472 833.235 554.939 834.997C546.548 835.425 549.432 830.337 541.134 829.622C535.171 829.108 485.82 828.895 482.588 829.881C479.734 830.751 479.078 832.979 476.868 834.51C475.675 835.336 474.538 835.365 473.159 835.113C470.791 834.68 468.216 833.536 466.946 831.386C465.876 829.575 465.939 827.432 466.52 825.47C467.474 822.246 469.365 821.065 472.191 819.494Z"></path><path fill="#262325" d="M471.52 188.536C476.889 188.288 477.928 189.232 480.456 193.861C501.316 194.349 523.315 193.893 544.31 193.972C545.128 192.588 545.826 191.357 547.101 190.341C548.807 188.97 551.021 188.403 553.176 188.784C555.134 189.164 556.847 190.338 557.906 192.028C561.092 197.084 557.574 201.429 553.023 203.747C547.84 203.018 546.813 202.34 544.648 197.528L480.197 197.497C479.366 199.504 478.636 200.927 476.72 202.162C475.108 203.212 473.115 203.499 471.272 202.949C469.281 202.333 467.617 200.95 466.647 199.106C463.995 194.155 467.131 190.615 471.52 188.536Z"></path><style>@media (prefers-color-scheme: light) { :root { filter: none; } }
@media (prefers-color-scheme: dark) { :root { filter: invert(100%); } }
</style></svg>